<svg xmlns="http://www.w3.org/2000/svg" width="350.401" height="317.259" viewBox="0 0 350.401 317.259">
  <g id="Group_42" data-name="Group 42" transform="translate(-342.595 -109.99)">
    <path id="Path_73" data-name="Path 73" d="M416.733,136.935h0V427.249H606.545a21.412,21.412,0,0,0,21.412-21.412V134.671a24.682,24.682,0,0,1,24.681-24.681H443.678A26.945,26.945,0,0,0,416.733,136.935Z" transform="translate(-28.574)" fill="#f0f1f3"/>
    <path id="Path_74" data-name="Path 74" d="M883.381,380.76V225.99H836.574V382A22.125,22.125,0,0,0,858.7,404.124h.036A24.682,24.682,0,0,0,883.381,380.76Z" transform="translate(-190.384 -44.708)" fill="#acb2bc"/>
    <path id="Path_75" data-name="Path 75" d="M807.222,337.291V132.115A22.125,22.125,0,0,0,785.1,109.99h0a24.682,24.682,0,0,0-24.681,24.681V359.417h68.932A22.125,22.125,0,0,1,807.222,337.291Z" transform="translate(-161.032)" fill="#c3c8cf"/>
    <path id="Path_76" data-name="Path 76" d="M552.577,564.3V522.99H342.595V564.3a22.126,22.126,0,0,0,22.125,22.125H574.7A22.125,22.125,0,0,1,552.577,564.3Z" transform="translate(0 -159.174)" fill="#c3c8cf"/>
    <g id="Group_33" data-name="Group 33" transform="translate(407.881 316.96)">
      <rect id="Rectangle_18" data-name="Rectangle 18" width="141.327" height="8.15" transform="translate(0 13.698)" fill="#e0e0e0"/>
      <rect id="Rectangle_19" data-name="Rectangle 19" width="77.16" height="8.15" fill="#e0e0e0"/>
    </g>
    <g id="Group_34" data-name="Group 34" transform="translate(407.881 263.036)">
      <rect id="Rectangle_20" data-name="Rectangle 20" width="141.327" height="8.15" transform="translate(0 13.698)" fill="#e0e0e0"/>
      <rect id="Rectangle_21" data-name="Rectangle 21" width="77.16" height="8.15" transform="translate(0 0)" fill="#e0e0e0"/>
    </g>
    <g id="Group_35" data-name="Group 35" transform="translate(407.881 209.112)">
      <rect id="Rectangle_22" data-name="Rectangle 22" width="141.327" height="8.15" transform="translate(0 13.698)" fill="#e0e0e0"/>
      <rect id="Rectangle_23" data-name="Rectangle 23" width="77.16" height="8.15" fill="#e0e0e0"/>
    </g>
    <g id="Group_36" data-name="Group 36" transform="translate(407.881 155.188)">
      <rect id="Rectangle_24" data-name="Rectangle 24" width="141.327" height="8.15" transform="translate(0 13.698)" fill="#e0e0e0"/>
      <rect id="Rectangle_25" data-name="Rectangle 25" width="77.16" height="8.15" transform="translate(0 0)" fill="#e0e0e0"/>
    </g>
    <g id="Group_40" data-name="Group 40" transform="translate(532.283 136.368)">
      <g id="Group_37" data-name="Group 37" transform="translate(0 109.724)">
        <path id="Path_77" data-name="Path 77" d="M656.179,367.117a3.793,3.793,0,0,1-1.045.468.875.875,0,0,1-.976-.422c-.213-.513.267-1.249-.17-1.591-.4-.31-.929.19-1.432.229a.94.94,0,0,1-.8-.406l-.521,5.736a.493.493,0,0,0,.757.46l5.9-3.766a2.121,2.121,0,0,0-.031-.795C657.646,366.274,656.626,366.881,656.179,367.117Z" transform="translate(-651.236 -344.528)" fill="#ff4d56"/>
        <path id="Path_78" data-name="Path 78" d="M654.721,331.441l-2.634,20.868a.94.94,0,0,0,.8.406c.5-.039,1.034-.539,1.432-.229.438.342-.042,1.078.17,1.591a.875.875,0,0,0,.976.422,3.8,3.8,0,0,0,1.045-.468c.447-.236,1.466-.843,1.685-.086a2.12,2.12,0,0,1,.031.795l16.285-11.272Z" transform="translate(-651.564 -331.441)" fill="#ddba87"/>
      </g>
      <path id="Path_79" data-name="Path 79" d="M660.8,280.913l-4.431-7.019,55.772-91.767,6.351,3.86Z" transform="translate(-653.216 -164.17)" fill="#f1c430"/>
      <path id="Path_80" data-name="Path 80" d="M670.686,287.651l-2.095-4.76-5.19.333L721.093,188.3l7.285,4.428Z" transform="translate(-655.925 -166.548)" fill="#14233c"/>
      <path id="Path_81" data-name="Path 81" d="M683.437,291.075l-8.183-.647L732.947,195.5l6.263,3.806Z" transform="translate(-660.493 -169.325)" fill="#a48210"/>
      <g id="Group_38" data-name="Group 38" transform="translate(63.145)">
        <path id="Path_82" data-name="Path 82" d="M765.964,153.621a4.889,4.889,0,0,0-6.716,1.638l-5.269,8.67,6.462,3.928,7.808-12.847Z" transform="translate(-753.979 -152.909)" fill="#ec7063"/>
        <path id="Path_83" data-name="Path 83" d="M785.907,164.6l-1.982-1.2-7.808,12.847,6.159,3.743,5.269-8.669A4.889,4.889,0,0,0,785.907,164.6Z" transform="translate(-762.511 -156.949)" fill="#d64030"/>
        <rect id="Rectangle_26" data-name="Rectangle 26" width="15.034" height="8.359" transform="translate(6.463 14.948) rotate(-58.711)" fill="#da5345"/>
      </g>
      <g id="Group_39" data-name="Group 39" transform="translate(58.928 11.02)">
        <path id="Path_84" data-name="Path 84" d="M761.728,177.178l-4.274,6.9,7.217,4.386,4.234-6.926Z" transform="translate(-751.102 -173.283)" fill="#5d6d7e"/>
        <path id="Path_85" data-name="Path 85" d="M751.335,170.84l-4.216,6.937,6.352,3.86,4.274-6.9Z" transform="translate(-747.119 -170.84)" fill="#71808e"/>
        <path id="Path_86" data-name="Path 86" d="M779.609,188.03l-6.178-3.755L769.2,191.2l6.2,3.766Z" transform="translate(-755.628 -176.018)" fill="#34495e"/>
      </g>
    </g>
    <g id="Group_41" data-name="Group 41" transform="translate(403.124 241.4)">
      <path id="Path_87" data-name="Path 87" d="M563.48,338.07a163.838,163.838,0,0,0-61.613-14.177,134.59,134.59,0,0,0-31.573,2.36c-9.428,1.988-18.433,6.227-24.257,14.143-5.356,7.279-6.636,16.721-2.524,24.875,3.684,7.3,11.076,12.331,18.326,15.627,18.635,8.47,40.543,11.194,60.818,9.457,10.728-.919,23.144-2.37,32.464-8.216,8.574-5.376,13.555-15.49,9.432-25.23-.782-1.849-3.474-2.217-5.045-1.323-1.911,1.088-2.095,3.222-1.323,5.046,3.213,7.591-4.444,14.514-10.631,17.164-7.674,3.286-16.643,4.474-24.9,5.184a124.26,124.26,0,0,1-53.539-7c-6.466-2.392-13.371-5.962-17.544-11.644-4.417-6.014-3.939-13.439.278-19.444,4.833-6.883,12.974-10.021,20.925-11.635a126.323,126.323,0,0,1,27.424-2.029,154.49,154.49,0,0,1,59.558,13.212c4.3,1.91,8.055-4.443,3.722-6.368Z" transform="translate(-441.082 -323.807)" fill="#ff4d56"/>
    </g>
  </g>
</svg>
