<svg xmlns="http://www.w3.org/2000/svg" width="493.475" height="394.953" viewBox="0 0 493.475 394.953">
  <g id="Group_57" data-name="Group 57" transform="translate(-277.447 -143.959)">
    <path id="Path_88" data-name="Path 88" d="M886.043,628.2a10.788,10.788,0,0,1-2.633,19.542,47.392,47.392,0,0,1-12.788,1.814,47.945,47.945,0,0,1-29.532-10.186,48.254,48.254,0,0,1,12.02-11.517,29.73,29.73,0,0,1,15.734-4.99c6.019-.033,11.885,2.142,17.044,5.243Z" transform="translate(-159.738 -135.724)" fill="#5a3f35"/>
    <g id="Group_50" data-name="Group 50" transform="translate(625.104 143.959)">
      <g id="Group_45" data-name="Group 45" transform="translate(22.412)">
        <g id="Group_44" data-name="Group 44">
          <path id="Path_89" data-name="Path 89" d="M833.428,361.141a3.375,3.375,0,0,1-3.324,3.423H820.28a3.373,3.373,0,0,1-3.321-3.423V147.383a3.373,3.373,0,0,1,3.321-3.424H830.1a3.375,3.375,0,0,1,3.324,3.424Z" transform="translate(-800.415 -143.959)" fill="#f1c430"/>
          <g id="Group_43" data-name="Group 43">
            <path id="Path_90" data-name="Path 90" d="M797.194,160.932a3.374,3.374,0,0,1-3.322-3.423V147.382a3.373,3.373,0,0,1,3.322-3.423H840.1a3.374,3.374,0,0,1,3.323,3.423v10.127a3.375,3.375,0,0,1-3.323,3.423Z" transform="translate(-793.872 -143.959)" fill="#707b8c"/>
          </g>
        </g>
      </g>
      <g id="Group_49" data-name="Group 49" transform="translate(0 206.858)">
        <path id="Path_91" data-name="Path 91" d="M856.978,552.921c0,18.2-28.372,54.07-47.189,62.262-19.038-9.7-47.192-43.222-47.192-62.262V484.214l14.52.476h65.339l14.522-.476Z" transform="translate(-762.597 -447.247)" fill="#707b8c"/>
        <g id="Group_48" data-name="Group 48" transform="translate(34.087)">
          <g id="Group_47" data-name="Group 47">
            <g id="Group_46" data-name="Group 46">
              <path id="Path_92" data-name="Path 92" d="M822.892,498.924,810.165,470.07V438.076a5.37,5.37,0,0,1,5.286-5.449h15.635a5.37,5.37,0,0,1,5.287,5.449V470.07Z" transform="translate(-810.165 -432.627)" fill="#34495e"/>
            </g>
          </g>
        </g>
      </g>
      <path id="Path_93" data-name="Path 93" d="M860.793,484.69H827.3V614.736c.275.149.555.31.828.447,18.817-8.191,47.189-44.065,47.189-62.262V484.214Z" transform="translate(-780.933 -240.388)" fill="#34495e"/>
      <path id="Path_94" data-name="Path 94" d="M836.032,432.627h-8.415v65.8l.221.5,13.481-28.854V438.076A5.37,5.37,0,0,0,836.032,432.627Z" transform="translate(-781.024 -225.769)" fill="#707b8c"/>
    </g>
    <path id="Path_95" data-name="Path 95" d="M642.775,550.65l17.654-162.513-185.535.016,19.039,162.509S561.694,562.36,642.775,550.65Z" transform="translate(-55.957 -69.201)" fill="#2991cc"/>
    <g id="Group_51" data-name="Group 51" transform="translate(418.937 318.936)" opacity="0.2">
      <path id="Path_96" data-name="Path 96" d="M474.894,388.153l185.535-.016-1.181,12.8Z" transform="translate(-474.894 -388.137)"/>
    </g>
    <path id="Path_97" data-name="Path 97" d="M481.729,438.681l9.923,88.984,156.836-.015,9.2-88.986Z" transform="translate(-57.894 -83.521)" fill="#145d8e"/>
    <g id="Group_52" data-name="Group 52" transform="translate(437.235 345.196)" opacity="0.1">
      <path id="Path_98" data-name="Path 98" d="M664.864,424.783s-36.643,109-164.435,129.189l.649,7.064,149.159.111Z" transform="translate(-500.429 -424.783)"/>
    </g>
    <path id="Path_99" data-name="Path 99" d="M500.3,604.983l.834,7.127s67.761,11.7,148.841-.012l.776-7.139C574.611,615.727,510.2,606.536,500.3,604.983Z" transform="translate(-63.157 -130.649)" fill="#707b8c"/>
    <path id="Path_100" data-name="Path 100" d="M657.93,358.908c-.138-.465-.276-.928-.42-1.385l-.07-.224C644.7,317.325,607.093,289.4,565.993,289.4l-.817,0c-41.156.338-77.514,27.407-90.466,67.351l-.689,2.17,1.559-.339a16.781,16.781,0,0,1,1.918-.286l.6-.059.187-.57c12.53-38.312,47.462-64.269,86.933-64.592l.778,0c39.52,0,75.681,26.865,87.943,65.33l.434,1.4.612.058a17.064,17.064,0,0,1,1.911.3l1.478.215Z" transform="translate(-55.709 -41.22)" fill="#c3c8cf"/>
    <path id="Path_101" data-name="Path 101" d="M558.164,292.178c0,6.235,7.594,11.336,16.877,11.336h25.274c9.283,0,16.877-5.1,16.877-11.336s-7.594-11.336-16.877-11.336H575.041C565.759,280.842,558.164,285.943,558.164,292.178Z" transform="translate(-79.556 -38.793)" fill="#8e400a"/>
    <g id="Group_55" data-name="Group 55" transform="translate(277.448 297.238)">
      <path id="Path_102" data-name="Path 102" d="M424.967,579.784l14.045-129.3L291.4,450.5l15.147,129.292S360.459,589.1,424.967,579.784Z" transform="translate(-281.402 -384.109)" fill="#ff4d56"/>
      <g id="Group_53" data-name="Group 53" transform="translate(9.999 66.379)" opacity="0.2">
        <path id="Path_103" data-name="Path 103" d="M291.4,450.5l147.612-.013-.94,10.187Z" transform="translate(-291.401 -450.488)"/>
      </g>
      <path id="Path_104" data-name="Path 104" d="M295.712,487.59,303.7,559.2l126.218-.012,7.4-71.614Z" transform="translate(-282.624 -394.62)" fill="#d64030"/>
      <g id="Group_54" data-name="Group 54" transform="translate(24.556 87.272)" opacity="0.1">
        <path id="Path_105" data-name="Path 105" d="M442.541,479.644S413.388,566.36,311.716,582.427l.517,5.621,118.671.088Z" transform="translate(-311.716 -479.644)"/>
      </g>
      <path id="Path_106" data-name="Path 106" d="M311.613,623.011l.664,5.67s53.91,9.307,118.419-.01l.617-5.68C370.737,631.559,319.488,624.247,311.613,623.011Z" transform="translate(-287.131 -432.997)" fill="#707b8c"/>
      <rect id="Rectangle_27" data-name="Rectangle 27" width="167.608" height="8.815" transform="translate(0 57.571)" fill="#c3c8cf"/>
      <path id="Path_107" data-name="Path 107" d="M436.658,419.233c-.108-.365-.217-.729-.33-1.089l-.055-.176c-10.019-31.428-39.583-53.379-71.9-53.379l-.642,0c-32.357.265-60.942,21.547-71.125,52.952l-.542,1.706,1.226-.267a13.009,13.009,0,0,1,1.508-.224l.47-.047.147-.449c9.852-30.121,37.315-50.529,68.347-50.783l.611,0c31.07,0,59.5,21.122,69.142,51.363l.341,1.1.482.045a13.645,13.645,0,0,1,1.5.233l1.163.169Z" transform="translate(-281.591 -359.765)" fill="#c3c8cf"/>
      <path id="Path_108" data-name="Path 108" d="M358.221,366.769c0,4.9,5.971,8.912,13.268,8.912h19.871c7.3,0,13.268-4.01,13.268-8.912s-5.971-8.912-13.268-8.912H371.49C364.192,357.857,358.221,361.868,358.221,366.769Z" transform="translate(-300.34 -357.857)" fill="#8e400a"/>
    </g>
    <rect id="Rectangle_28" data-name="Rectangle 28" width="210.668" height="11.079" transform="translate(406.37 307.865)" fill="#c3c8cf"/>
    <path id="Path_109" data-name="Path 109" d="M916.541,672.1a65.293,65.293,0,0,1,7.508-6.881,15.823,15.823,0,0,1,7.831-3.457,16.415,16.415,0,0,1,9.1,2.014c4.129,2.1,7.624,5.234,11.068,8.332A33.231,33.231,0,0,1,935.3,677.7C925.1,678.317,916.541,672.1,916.541,672.1Z" transform="translate(-181.121 -146.728)" fill="#664a3b"/>
    <path id="Path_110" data-name="Path 110" d="M649.32,662.933a65.239,65.239,0,0,1,7.508-6.882,15.825,15.825,0,0,1,7.831-3.457,16.425,16.425,0,0,1,9.1,2.014c4.129,2.1,7.625,5.234,11.068,8.333a33.229,33.229,0,0,1-16.748,5.587C657.878,669.146,649.32,662.933,649.32,662.933Z" transform="translate(-105.39 -144.129)" fill="#664a3b"/>
    <g id="Group_56" data-name="Group 56" transform="translate(578.998 473.926)">
      <path id="Path_111" data-name="Path 111" d="M833.189,641.345a19.958,19.958,0,0,0-2.031.107c-3.767-6.375-11.587-10.758-20.627-10.758a27.2,27.2,0,0,0-5.486.557c-.505-14.889-15.018-26.828-32.847-26.828-17.992,0-32.6,12.157-32.856,27.234a26.983,26.983,0,0,0-7.174-.964c-12.715,0-23.024,8.667-23.024,19.358,0,.353.013.7.034,1.051h-.034c-6.013,0-10.888,4.1-10.888,9.155s4.875,9.154,10.888,9.154H833.189c9.218,0,16.69-6.282,16.69-14.032S842.407,641.345,833.189,641.345Z" transform="translate(-698.257 -604.423)" fill="#5a3f35"/>
      <path id="Path_112" data-name="Path 112" d="M768.584,649.531a12.216,12.216,0,0,0-11.638-.8c-3.586,1.736-5.68,5.425-5.028,8.861,1.286-2.687,3.753-4.59,6.679-6.12A19.378,19.378,0,0,1,768.584,649.531Z" transform="translate(-713.431 -616.667)" fill="#7b655d"/>
      <path id="Path_113" data-name="Path 113" d="M718.787,639.37a23.174,23.174,0,0,1,9.447-4.54c7.1-1.6,15.125.079,20.508,4.292-.785-9.206,3.4-18.71,11.221-25.183a35.2,35.2,0,0,1,30.339-6.606,38.676,38.676,0,0,1,9.851,4.307,36.378,36.378,0,0,0-22.135-7.218c-17.992,0-32.6,12.157-32.856,27.234a26.983,26.983,0,0,0-7.174-.964C729.967,630.693,722.91,634.142,718.787,639.37Z" transform="translate(-704.075 -604.423)" fill="#7b655d"/>
      <path id="Path_114" data-name="Path 114" d="M886.59,665.767c0-7.75-7.473-14.032-16.69-14.032a19.976,19.976,0,0,0-2.031.107c-3.767-6.375-11.587-10.758-20.627-10.758a27.235,27.235,0,0,0-5.272.516A29.466,29.466,0,0,0,827.791,652c4.645-5.05,12.4-7.68,19.931-6.877s14.391,5.144,17.391,11.008a16.07,16.07,0,0,1,13.3,2.521,13.927,13.927,0,0,1,5.822,10.651,14.756,14.756,0,0,1-.471,4.277A12.46,12.46,0,0,0,886.59,665.767Z" transform="translate(-734.967 -614.813)" fill="#7b655d"/>
    </g>
  </g>
</svg>
