<?xml version="1.0" encoding="utf-8"?>
<!-- Generator: Adobe Illustrator 21.0.2, SVG Export Plug-In . SVG Version: 6.00 Build 0)  -->
<svg version="1.1" id="boy" xmlns="http://www.w3.org/2000/svg" xmlns:xlink="http://www.w3.org/1999/xlink" x="0px" y="0px"
	viewBox="0 0 128 128" style="enable-background:new 0 0 128 128;" xml:space="preserve">
<style type="text/css">
	.st0{fill:#616879;}
	.st1{fill:#ffffff;}
	.st2{fill:#ffffff;}
	.st3{fill:#616879;}
	.st4{fill:#616879;}
	.st5{fill:#FFFFFF;}
	.st6{fill:#ffffff;}
	.st7{fill:#000000; opacity: 0.6}
	.st8{opacity:0.5;fill:#FFFFFF;}
</style>
<g>
	<path class="st0" d="M128,64c0,25.4-14.7,47.3-36.1,57.6C83.5,125.7,74,127,64,127c-10.3,0-20.1-1.4-28.7-5.8C14.4,110.7,0,89,0,64
		C0,28.7,28.7,0,64,0C99.3,0,128,28.7,128,64z"/>
	<path class="st1" d="M64,128c10.1,0,19.6-2.2,28-6.4C90.6,107.2,78.4,96,63.6,96c-14.7,0-26.7,11-28.4,25.3
		C43.9,125.6,53.7,128,64,128z"/>
	<path class="st2" d="M63.6,94.9c-15,0-27.4,11-29.3,25.8c0.6,0.3,1.3,0.7,1.9,1c1.4-14.1,13.2-24.7,27.4-24.7
		c14.2,0,25.9,10.8,27.4,25.1c0.6-0.3,1.3-0.6,1.9-0.9C91,106.1,78.6,94.9,63.6,94.9z"/>
	<path class="st3" d="M67.9,99.6c0,2.3-1.5,4.2-3.7,4.2l0,0c-2.3,0-4.3-1.9-4.3-4.2v-8.9c0-2.3,2-4.2,4.3-4.2l0,0
		c2.3,0,3.7,1.9,3.7,4.2V99.6z"/>
	<circle class="st3" cx="34.5" cy="63.5" r="5.4"/>
	<path class="st2" d="M34.5,70c-3.6,0-6.5-2.9-6.5-6.4c0-3.6,2.9-6.4,6.5-6.4c3.6,0,6.5,2.9,6.5,6.4C40.9,67.1,38,70,34.5,70z
		 M34.5,59.1c-2.5,0-4.5,2-4.5,4.4c0,2.5,2,4.4,4.5,4.4c2.5,0,4.5-2,4.5-4.4C38.9,61.1,36.9,59.1,34.5,59.1z"/>
	<circle class="st3" cx="93.4" cy="63.5" r="5.4"/>
	<path class="st2" d="M64.3,105c-2.9,0-5.3-2.3-5.3-5.2v-9c0-2.9,2.4-5.2,5.3-5.2c2.7,0,4.7,2.2,4.7,5.2v9C69,102.8,67,105,64.3,105
		z M64.3,87.6c-1.8,0-3.3,1.5-3.3,3.2v9c0,1.7,1.5,3.2,3.3,3.2c1.9,0,2.7-1.7,2.7-3.2v-9C67,89.2,66.1,87.6,64.3,87.6z"/>
	<path class="st2" d="M93.5,70c-3.6,0-6.5-2.9-6.5-6.4c0-3.6,2.9-6.4,6.5-6.4c3.6,0,6.5,2.9,6.5,6.4C100,67.1,97.1,70,93.5,70z
		 M93.5,59.1c-2.5,0-4.5,2-4.5,4.4c0,2.5,2,4.4,4.5,4.4c2.5,0,4.5-2,4.5-4.4C98,61.1,96,59.1,93.5,59.1z"/>
	<path class="st3" d="M63.9,27.4c14.9,0,27,12.1,27,27v10.8c0,14.9-12.1,27-27,27c-14.9,0-27-12.1-27-27V54.3
		C36.9,39.5,49,27.4,63.9,27.4z"/>
	<path d="M46,65.8c0-2.1,1.8-3.8,4-3.8c2.2,0,4,1.7,4,3.8"/>
	<path class="st4" d="M63.9,86.5c-14.9,0-27-12.1-27-27v5.6c0,14.9,12.1,27,27,27c14.9,0,27-12.1,27-27v-5.6
		C90.8,74.5,78.8,86.5,63.9,86.5z"/>
	<path class="st2" d="M63.9,93C48.5,93,36,80.5,36,65.1V54.3c0-15.4,12.5-28,27.9-28c15.5,0,28.1,12.5,28.1,28v10.8
		C92,80.5,79.4,93,63.9,93z M63.9,28.4c-14.4,0-26,11.7-26,26v10.8c0,14.2,11.7,25.8,26,25.8c14.4,0,26.2-11.6,26.2-25.8V54.3
		C90.2,40,78.3,28.4,63.9,28.4z"/>
	<path d="M74,65.8c0-2.1,1.8-3.8,4-3.8c2.2,0,4,1.7,4,3.8"/>
	<path class="st5" d="M70,77c0,3.3-2.7,6-6,6c-3.3,0-6-2.7-6-6H70z"/>
	<path class="st2" d="M53,58H47c-0.5,0-1-0.4-1-1s0.4-1,1-1H53c0.5,0,1,0.4,1,1S53.6,58,53,58z"/>
	<path class="st2" d="M81,58H75c-0.5,0-1-0.4-1-1s0.4-1,1-1H81c0.5,0,1,0.4,1,1S81.6,58,81,58z"/>
	<path class="st5" d="M86.1,118.3c-0.4,0-0.8-0.2-0.9-0.6c-0.6-1.5-1.2-2.8-1.8-4c-0.3-0.5-0.1-1.1,0.4-1.4c0.5-0.3,1.1-0.1,1.4,0.4
		c0.7,1.3,1.3,2.7,1.9,4.3c0.2,0.5-0.1,1.1-0.6,1.3C86.3,118.2,86.2,118.3,86.1,118.3z"/>
	<path class="st5" d="M81.9,110.6c-0.3,0-0.6-0.1-0.8-0.4c-2.6-3.5-5.6-5.1-8.1-6.2c-0.5-0.2-0.7-0.8-0.5-1.3s0.8-0.7,1.3-0.5
		c2.8,1.3,6,2.9,8.9,6.9c0.3,0.4,0.2,1.1-0.2,1.4C82.3,110.6,82.1,110.6,81.9,110.6z"/>
	<path class="st4" d="M66,71c0,1.1-0.9,2-2,2l0,0c-1.1,0-2-0.9-2-2v-5c0-1.1,0.9-2,2-2l0,0c1.1,0,2,0.9,2,2V71z"/>
	<path class="st5" d="M21.9,57.7c0-0.4-0.4-0.8-1-0.9l-1.9-0.3c-0.5-0.1-1.1-0.6-1.1-1.1l-0.3-1.9c-0.1-0.5-0.5-1-0.9-1
		s-0.8,0.4-0.9,1l-0.3,1.9c-0.1,0.5-0.6,1.1-1.1,1.1l-1.9,0.3c-0.5,0.1-1,0.5-1,0.9c0,0.4,0.4,0.8,1,0.9l1.9,0.3
		c0.5,0.1,1.1,0.6,1.1,1.1l0.3,1.9c0.1,0.5,0.5,1,0.9,1s0.8-0.4,0.9-1l0.3-2.1c0.1-0.5,0.6-1,1.1-1.1l1.8-0.1
		C21.5,58.5,21.9,58.1,21.9,57.7z"/>
	<path class="st5" d="M75.4,10.7c0-0.4-0.4-0.8-1-0.9l-1.9-0.3C72,9.5,71.5,9,71.4,8.4l-0.3-1.9c-0.1-0.5-0.5-1-0.9-1
		c-0.4,0-0.8,0.4-0.9,1l-0.3,1.9C69.1,9,68.6,9.5,68,9.6l-1.9,0.3c-0.5,0.1-1,0.5-1,0.9s0.4,0.8,1,0.9l1.9,0.3
		c0.5,0.1,1.1,0.6,1.1,1.1l0.3,1.9c0.1,0.5,0.5,1,0.9,1c0.4,0,0.8-0.4,0.9-1l0.3-2.1c0.1-0.5,0.6-1,1.1-1.1l1.8-0.1
		C75,11.5,75.4,11.1,75.4,10.7z"/>
	<path class="st5" d="M31,97.9c-2.2,0-4-1.8-4-4c0-2.2,1.8-4,4-4c2.2,0,4,1.8,4,4C34.9,96.2,33.2,97.9,31,97.9z M31,91.9
		c-1.2,0-2.1,0.9-2.1,2.1c0,1.2,0.9,2.1,2.1,2.1c1.2,0,2.1-0.9,2.1-2.1C33.1,92.8,32.1,91.9,31,91.9z"/>
	<path class="st5" d="M109,55c-2.2,0-4-1.8-4-4c0-2.2,1.8-4,4-4c2.2,0,4,1.8,4,4C113,53.2,111.2,55,109,55z M109,48.9
		c-1.2,0-2.1,1-2.1,2.1c0,1.2,1,2.1,2.1,2.1c1.2,0,2.1-1,2.1-2.1C111.1,49.8,110.2,48.9,109,48.9z"/>
	<path class="st6" d="M41,54.5c0,2.5-2,4.5-4.5,4.5l0,0C34,59,32,57,32,54.5v-16c0-2.5,2-4.5,4.5-4.5l0,0c2.5,0,4.5,0,4.5,0V54.5z"
		/>
	<path class="st2" d="M36.5,60c-3,0-5.5-2.5-5.5-5.5v-16c0-3,2.5-5.5,5.5-5.5H41c0.6,0,1,0.4,1,1v20.5C42,57.5,39.5,60,36.5,60z
		 M36.5,35c-1.9,0-3.5,1.6-3.5,3.5v16c0,1.9,1.6,3.5,3.5,3.5s3.5-1.6,3.5-3.5V35H36.5z"/>
	<path class="st6" d="M87,54.5c0,2.5,2,4.5,4.5,4.5l0,0c2.5,0,4.5-2,4.5-4.5v-16c0-2.5-2-4.5-4.5-4.5l0,0C89,34,87,34,87,34V54.5z"
		/>
	<path class="st2" d="M91.5,60c-3,0-5.5-2.5-5.5-5.5V34c0-0.6,0.4-1,1-1h4.5c3,0,5.5,2.5,5.5,5.5v16C97,57.5,94.5,60,91.5,60z
		 M88,35v19.5c0,1.9,1.6,3.5,3.5,3.5s3.5-1.6,3.5-3.5v-16c0-1.9-1.6-3.5-3.5-3.5H88z"/>
	<path class="st6" d="M93,33.2C93,39.9,87.5,45,80.8,45H41c0,0,0-5.1,0-11.8l0,0C41,26.5,46.5,21,53.2,21H93C93,21,93,26.5,93,33.2
		L93,33.2z"/>
	<path class="st7" d="M80.8,37H41c0,4.8,0,8,0,8h39.8C87.5,45,93,39.9,93,33.2c0-3.1,0-5.9,0-8C93,31.9,87.5,37,80.8,37z"/>
	<path class="st2" d="M80.8,46H41c-0.6,0-1-0.4-1-1V33.2C40,25.9,45.9,20,53.2,20H93c0.6,0,1,0.4,1,1v12.2C94,40.4,88.2,46,80.8,46z
		 M42,44h38.8C87.1,44,92,39.3,92,33.2V22H53.2C47,22,42,27,42,33.2V44z"/>
	<path class="st8" d="M89,26h-6c-0.6,0-1-0.4-1-1s0.4-1,1-1h6c0.6,0,1,0.4,1,1S89.6,26,89,26z"/>
	<path class="st8" d="M78,26H55c-0.6,0-1-0.4-1-1s0.4-1,1-1h23c0.6,0,1,0.4,1,1S78.6,26,78,26z"/>
</g>
</svg>
