<?xml version="1.0" encoding="utf-8"?>
<!-- Generator: Adobe Illustrator 21.0.2, SVG Export Plug-In . SVG Version: 6.00 Build 0)  -->
<svg version="1.1" id="card" xmlns="http://www.w3.org/2000/svg" xmlns:xlink="http://www.w3.org/1999/xlink" x="0px" y="0px"
	 viewBox="0 0 128 128" style="enable-background:new 0 0 128 128;" xml:space="preserve">
<style type="text/css">
	.st0{fill:#616879;}
	.st1{fill:#FFFFFF;}
	.st2{fill:#FFFFFF;}
	.st3{fill:#616879;}
</style>
<g>
	<g>
		<circle class="st0" cx="64" cy="64" r="64"/>
	</g>
	<g>
		<path class="st1" d="M50.7,17.4c0-0.4-0.4-0.8-1-0.9l-1.9-0.3c-0.5-0.1-1.1-0.6-1.1-1.1l-0.3-1.9c-0.1-0.5-0.5-1-0.9-1
			c-0.4,0-0.8,0.4-0.9,1l-0.3,1.9c-0.1,0.5-0.6,1.1-1.1,1.1l-1.9,0.3c-0.5,0.1-1,0.5-1,0.9s0.4,0.8,1,0.9l1.9,0.3
			c0.5,0.1,1.1,0.6,1.1,1.1l0.3,1.9c0.1,0.5,0.5,1,0.9,1c0.4,0,0.8-0.4,0.9-1l0.3-2.1c0.1-0.5,0.6-1,1.1-1.1l1.8-0.1
			C50.2,18.1,50.7,17.8,50.7,17.4z"/>
	</g>
	<g>
		<path class="st1" d="M123.3,56.5c0-0.4-0.4-0.8-1-0.9l-1.9-0.3c-0.5-0.1-1.1-0.6-1.1-1.1l-0.3-1.9c-0.1-0.5-0.5-1-0.9-1
			c-0.4,0-0.8,0.4-0.9,1l-0.3,1.9c-0.1,0.5-0.6,1.1-1.1,1.1l-1.9,0.3c-0.5,0.1-1,0.5-1,0.9c0,0.4,0.4,0.8,1,0.9l1.9,0.3
			c0.5,0.1,1.1,0.6,1.1,1.1l0.3,1.9c0.1,0.5,0.5,1,0.9,1c0.4,0,0.8-0.4,0.9-1l0.3-2.1c0.1-0.5,0.6-1,1.1-1.1l1.8-0.1
			C122.8,57.3,123.3,56.9,123.3,56.5z"/>
	</g>
	<g>
		<path class="st1" d="M87.6,27.8c-2.4,0-4.3-1.9-4.3-4.3c0-2.4,1.9-4.3,4.3-4.3c2.4,0,4.3,1.9,4.3,4.3
			C91.8,25.8,89.9,27.8,87.6,27.8z M87.6,21.2c-1.3,0-2.3,1-2.3,2.3c0,1.3,1,2.3,2.3,2.3c1.3,0,2.3-1,2.3-2.3
			C89.8,22.2,88.8,21.2,87.6,21.2z"/>
	</g>
	<g>
		<path class="st1" d="M26.1,105.1c-2.4,0-4.3-1.9-4.3-4.3c0-2.4,1.9-4.3,4.3-4.3c2.4,0,4.3,1.9,4.3,4.3
			C30.4,103.2,28.5,105.1,26.1,105.1z M26.1,98.5c-1.3,0-2.3,1-2.3,2.3c0,1.3,1,2.3,2.3,2.3c1.3,0,2.3-1,2.3-2.3
			C28.4,99.6,27.4,98.5,26.1,98.5z"/>
	</g>
	<g>
		<path class="st2" d="M107.6,85.9c0,3.3-2.7,6-6,6H27.2c-3.3,0-6-2.7-6-6V40.6c0-3.3,2.7-6,6-6h74.4c3.3,0,6,2.7,6,6V85.9z"/>
	</g>
	<g>
		<rect x="21.1" y="48.1" class="st3" width="86.4" height="9.9"/>
	</g>
	<g>
		<rect x="82.2" y="70.6" class="st1" width="15" height="11"/>
	</g>
	<g>
		<path class="st3" d="M53.5,72H28.2c-0.6,0-1-0.4-1-1s0.4-1,1-1h25.3c0.6,0,1,0.4,1,1S54,72,53.5,72z"/>
	</g>
	<g>
		<path class="st3" d="M43.2,78H28.1c-0.6,0-1-0.4-1-1s0.4-1,1-1h15.1c0.6,0,1,0.4,1,1S43.8,78,43.2,78z"/>
	</g>
	<g>
		<path class="st3" d="M39.1,84H28.2c-0.6,0-1-0.4-1-1s0.4-1,1-1h10.9c0.6,0,1,0.4,1,1S39.6,84,39.1,84z"/>
	</g>
	<g>
		<path class="st3" d="M65,108H38.5c-0.6,0-1-0.4-1-1s0.4-1,1-1H65c0.6,0,1,0.4,1,1S65.6,108,65,108z"/>
	</g>
	<g>
		<path class="st3" d="M92.6,108H73.2c-0.6,0-1-0.4-1-1s0.4-1,1-1h19.4c0.6,0,1,0.4,1,1S93.2,108,92.6,108z"/>
	</g>
	<g>
		<path class="st3" d="M102,92H28c-3.9,0-7-3.1-7-7V40c0-3.9,3.1-7,7-7h74c3.9,0,7,3.1,7,7v45C109,88.9,105.9,92,102,92z M28,35
			c-2.8,0-5,2.2-5,5v45c0,2.8,2.2,5,5,5h74c2.8,0,5-2.2,5-5V40c0-2.8-2.2-5-5-5H28z"/>
	</g>
	<g>
		<path class="st1" d="M103,85c-0.6,0-1-0.4-1-1V62.4c0-0.6,0.4-1,1-1c0.6,0,1,0.4,1,1V84C104,84.5,103.6,85,103,85z"/>
	</g>
	<g>
		<path class="st1" d="M102.6,45.1c-0.6,0-1-0.4-1-1c0-1.7-1.3-3-3.1-3.1L51,41c-0.6,0-1-0.4-1-1s0.4-1,1-1h47.6
			c2.8,0.2,5,2.4,5,5.1C103.6,44.7,103.2,45.1,102.6,45.1z"/>
	</g>
	<g>
		<path class="st1" d="M43.8,41h-8.9c-0.6,0-1-0.4-1-1s0.4-1,1-1h8.9c0.6,0,1,0.4,1,1S44.4,41,43.8,41z"/>
	</g>
	<g>
		<path class="st3" d="M98,83H83c-0.6,0-1-0.4-1-1V71c0-0.6,0.4-1,1-1h15c0.6,0,1,0.4,1,1v11C99,82.6,98.6,83,98,83z M84,81h13v-9
			H84V81z"/>
	</g>
</g>
</svg>
