<?xml version="1.0" encoding="utf-8"?>
<!-- Generator: Adobe Illustrator 21.0.2, SVG Export Plug-In . SVG Version: 6.00 Build 0)  -->
<svg version="1.1" id="money" xmlns="http://www.w3.org/2000/svg" xmlns:xlink="http://www.w3.org/1999/xlink" x="0px" y="0px"
	 viewBox="0 0 128 128" style="enable-background:new 0 0 128 128;" xml:space="preserve">
<style type="text/css">
	.st0{fill:#616879;}
	.st1{fill:#616879;}
	.st2{fill:#ffffff;}
	.st3{fill:#ffffff;}
	.st4{opacity:0.9;fill:#FFFFFF;}
	.st5{fill:#FFFFFF;}
</style>
<g>
	<circle class="st0" cx="64" cy="64" r="64"/>
	<path class="st1" d="M97.2,33c2.6,2,3.1,5.8,1.1,8.4l-48.9,63c-2,2.6-5.8,3.1-8.4,1.1L13.8,84.3c-2.6-2-3.1-5.8-1.1-8.4l48.9-63
		c2-2.6,5.8-3.1,8.4-1.1L97.2,33z"/>
	<path class="st2" d="M44.8,108c-1.5,0-3-0.5-4.2-1.5L13.7,85.4c-3-2.4-3.6-6.8-1.2-9.8l48.3-62.9c1.3-1.7,3.3-2.7,5.5-2.7
		c1.5,0,3,0.5,4.2,1.5l26.9,21.1c3,2.4,3.6,6.8,1.2,9.8l-48.3,62.9C48.9,107,46.9,108,44.8,108z M66.2,12c-1.5,0-3,0.7-3.9,1.9
		L14,76.8c-1.7,2.2-1.3,5.3,0.9,7L41.7,105c0.9,0.7,1.9,1,3,1c1.5,0,3-0.7,3.9-1.9L97,41.2c1.7-2.2,1.3-5.3-0.9-7L69.3,13
		C68.4,12.4,67.4,12,66.2,12z"/>
	
		<ellipse transform="matrix(0.6137 -0.7896 0.7896 0.6137 -24.1859 66.8492)" class="st3" cx="56.2" cy="58.1" rx="14.4" ry="14.4"/>
	<path class="st2" d="M56.5,74c-3.5,0-6.8-1.1-9.5-3.3c-6.7-5.2-8-15-2.7-21.8c3-3.8,7.4-6,12.2-6c3.5,0,6.8,1.1,9.5,3.3
		c3.3,2.5,5.4,6.2,5.9,10.3c0.5,4.1-0.6,8.2-3.1,11.4C65.8,71.8,61.3,74,56.5,74z M56.5,45c-4.2,0-8.1,1.9-10.7,5.2
		c-4.6,5.9-3.5,14.4,2.4,18.9c2.4,1.9,5.2,2.8,8.3,2.8c4.2,0,8.1-1.9,10.7-5.2c2.2-2.8,3.2-6.4,2.7-10c-0.4-3.6-2.3-6.8-5.1-9
		C62.4,46,59.5,45,56.5,45z"/>
	<path class="st2" d="M19,89.2c-0.2,0-0.4-0.1-0.6-0.2c-0.4-0.3-0.5-0.9-0.1-1.3l0.2-0.2c3.6-4.5,2.7-11.1-1.9-14.6
		c0,0-0.1-0.1-0.1-0.1l-0.2-0.1c-0.4-0.3-0.5-0.9-0.2-1.3c0.3-0.4,0.9-0.5,1.3-0.2l0.1,0.1c0.1,0.1,0.2,0.1,0.2,0.2
		c5.4,4.1,6.4,11.9,2.2,17.2c-0.1,0.1-0.1,0.1-0.2,0.2l-0.1,0.1C19.6,89.1,19.3,89.2,19,89.2z"/>
	<path class="st2" d="M65,21.8c-2.6,0-5.2-0.9-7.4-2.7c-0.1-0.1-0.1-0.1-0.2-0.2l-0.1-0.1c-0.4-0.3-0.5-0.9-0.1-1.4
		c0.3-0.4,0.9-0.5,1.3-0.1c0.1,0,0.1,0.1,0.2,0.1l0.1,0.1c4.5,3.6,10.9,2.8,14.4-1.9c0,0,0.1-0.1,0.1-0.1l0.1-0.1
		c0.3-0.4,0.9-0.5,1.3-0.2c0.4,0.3,0.5,0.9,0.2,1.4l-0.1,0.1c-0.1,0.1-0.1,0.2-0.2,0.2C72.2,20.1,68.6,21.8,65,21.8z"/>
	<path class="st2" d="M35.9,102.5c-0.2,0-0.4-0.1-0.6-0.2c-0.4-0.3-0.5-0.9-0.2-1.4l0.1-0.1c0.1-0.1,0.1-0.2,0.2-0.2
		c4.4-5.7,12.7-6.7,18.4-2.3c0.1,0.1,0.1,0.1,0.2,0.2l0.1,0.1c0.4,0.3,0.5,1,0.2,1.4c-0.3,0.4-1,0.5-1.4,0.2c-0.1,0-0.1-0.1-0.2-0.2
		l-0.1-0.1c-4.8-3.7-11.8-2.9-15.5,2l-0.2,0.3C36.5,102.3,36.2,102.5,35.9,102.5z"/>
	<path class="st2" d="M94.3,47.5c-0.2,0-0.4-0.1-0.6-0.2l-0.1-0.1c-0.1,0-0.1-0.1-0.2-0.2c-5.7-4.4-6.7-12.7-2.3-18.4
		c0.1-0.1,0.1-0.1,0.2-0.2l0.1-0.1c0.4-0.4,1-0.5,1.4-0.1c0.4,0.4,0.5,1,0.1,1.4l-0.2,0.3c-3.7,4.8-2.9,11.8,2,15.5l0.1,0.1
		c0.1,0,0.1,0.1,0.2,0.1c0.4,0.3,0.5,1,0.2,1.4C95,47.4,94.7,47.5,94.3,47.5z"/>
	<line class="st3" x1="36.8" y1="83.6" x2="43.1" y2="75.5"/>
	<path class="st2" d="M36.8,84.6c-0.2,0-0.4-0.1-0.6-0.2c-0.4-0.3-0.5-1-0.2-1.4l6.3-8c0.3-0.4,1-0.5,1.4-0.2c0.4,0.3,0.5,1,0.2,1.4
		l-6.3,8C37.4,84.5,37.1,84.6,36.8,84.6z"/>
	<line class="st3" x1="69.5" y1="41.5" x2="75.8" y2="33.5"/>
	<path class="st2" d="M69.5,42.5c-0.2,0-0.4-0.1-0.6-0.2c-0.4-0.3-0.5-1-0.2-1.4l6.3-8c0.3-0.4,1-0.5,1.4-0.2c0.4,0.3,0.5,1,0.2,1.4
		l-6.3,8C70.1,42.4,69.8,42.5,69.5,42.5z"/>
	<path class="st1" d="M110.5,44.2c2.3,2.4,2.2,6.2-0.2,8.5L52.9,108c-2.4,2.3-6.2,2.2-8.5-0.2L20.5,83.1c-2.3-2.4-2.2-6.2,0.1-8.5
		l57.4-55.4c2.4-2.3,6.2-2.2,8.5,0.1L110.5,44.2z"/>
	<path class="st2" d="M48.8,111c-1.9,0-3.7-0.8-5-2.1L20,84.1c-2.7-2.8-2.6-7.2,0.2-9.9L77.3,19c1.3-1.3,3-2,4.8-2
		c1.9,0,3.7,0.8,5,2.1L111,43.9c1.3,1.3,2,3.1,1.9,5c0,1.9-0.8,3.6-2.1,4.9L53.7,109C52.4,110.3,50.6,111,48.8,111z M82.2,19
		c-1.3,0-2.5,0.5-3.5,1.4L21.5,75.7c-2,1.9-2,5.1-0.1,7.1l23.8,24.7c0.9,1,2.2,1.5,3.6,1.5c1.3,0,2.5-0.5,3.5-1.4l57.2-55.3
		c1-0.9,1.5-2.2,1.5-3.5c0-1.3-0.5-2.6-1.4-3.6L85.8,20.5C84.8,19.5,83.5,19,82.2,19z"/>
	<ellipse transform="matrix(0.7195 -0.6945 0.6945 0.7195 -25.332 63.7721)" class="st3" cx="66.3" cy="63.2" rx="14.4" ry="14.4"/>
	<path class="st2" d="M66,78c-4.1,0-7.9-1.6-10.8-4.6c-5.7-6-5.6-15.5,0.4-21.2C58.4,49.5,62.1,48,66,48c4.1,0,7.9,1.6,10.8,4.6
		c2.8,2.9,4.3,6.7,4.2,10.7c-0.1,4-1.7,7.7-4.6,10.5C73.6,76.5,69.9,78,66,78z M66,49.9c-3.4,0-6.6,1.3-9.1,3.7
		c-5.2,5-5.3,13.3-0.3,18.5c2.5,2.6,5.8,4,9.4,4c3.4,0,6.6-1.3,9.1-3.7c2.5-2.4,3.9-5.7,4-9.2c0.1-3.5-1.2-6.8-3.7-9.3
		C72.9,51.4,69.6,49.9,66,49.9z"/>
	<path class="st2" d="M25,88.7c-0.3,0-0.5-0.1-0.7-0.3c-0.4-0.4-0.3-1,0.1-1.4l0.3-0.2c4.4-4.1,4.5-10.8,0.3-15c0,0-0.1-0.1-0.1-0.1
		c-0.1,0-0.1-0.1-0.2-0.1c-0.4-0.4-0.4-1,0-1.4c0.4-0.4,1-0.4,1.4,0l0.1,0.1c0.1,0.1,0.1,0.1,0.2,0.2c5,5,4.9,12.9-0.3,17.7
		c-0.1,0.1-0.1,0.1-0.2,0.2l-0.1,0.1C25.5,88.7,25.2,88.7,25,88.7z"/>
	<path class="st2" d="M82.1,28.7c-3.2,0-6.3-1.3-8.6-3.8c-0.1-0.1-0.1-0.1-0.2-0.2l-0.1-0.1c-0.3-0.4-0.3-1,0-1.3
		c0.4-0.4,1-0.3,1.3,0c0,0.1,0.1,0.1,0.1,0.2l0.1,0.1c3.9,4.2,10.4,4.3,14.4,0.3c0,0,0.1-0.1,0.1-0.1l0.1-0.1c0.4-0.4,0.9-0.4,1.3,0
		c0.4,0.4,0.4,1,0,1.3L90.7,25c-0.1,0.1-0.1,0.1-0.2,0.2C88.2,27.5,85.1,28.7,82.1,28.7z"/>
	<path class="st2" d="M57.6,104.6c-0.3,0-0.5-0.1-0.7-0.3c-0.1-0.1-0.1-0.1-0.2-0.2l-0.1-0.1c-2.1-2.1-4.8-3.3-7.8-3.4
		c-3-0.1-5.8,1-7.9,3.1c0,0-0.1,0.1-0.1,0.1l-0.1,0.1c-0.4,0.4-1,0.4-1.4,0c-0.4-0.4-0.4-1,0-1.4l0.1-0.1c0.1-0.1,0.1-0.1,0.2-0.2
		c2.5-2.4,5.8-3.8,9.3-3.7c3.5,0.1,6.8,1.5,9.2,4c0.1,0.1,0.1,0.1,0.2,0.2l0.1,0.1c0.4,0.4,0.4,1,0,1.4
		C58.1,104.5,57.8,104.6,57.6,104.6z"/>
	<path class="st2" d="M105.7,58.1c-0.3,0-0.5-0.1-0.7-0.3l-0.1-0.1c-0.1-0.1-0.1-0.1-0.2-0.2c-5-5.2-4.9-13.5,0.3-18.5
		c0.1-0.1,0.1-0.1,0.2-0.2l0.1-0.1c0.4-0.4,1-0.3,1.4,0.1c0.4,0.4,0.3,1-0.1,1.4l-0.1,0.1c0,0-0.1,0.1-0.1,0.1
		c-4.4,4.2-4.5,11.3-0.3,15.7l0.1,0.1c0.1,0,0.1,0.1,0.2,0.1c0.4,0.4,0.4,1,0,1.4C106.2,58,105.9,58.1,105.7,58.1z"/>
	<line class="st3" x1="43.5" y1="85.7" x2="50.8" y2="78.6"/>
	<path class="st2" d="M43.5,86.7c-0.3,0-0.5-0.1-0.7-0.3c-0.4-0.4-0.4-1,0-1.4l7.3-7.1c0.4-0.4,1-0.4,1.4,0c0.4,0.4,0.4,1,0,1.4
		l-7.3,7.1C44,86.6,43.7,86.7,43.5,86.7z"/>
	<line class="st3" x1="81.8" y1="48.7" x2="89.1" y2="41.6"/>
	<path class="st2" d="M81.8,49.7c-0.3,0-0.5-0.1-0.7-0.3c-0.4-0.4-0.4-1,0-1.4l7.3-7.1c0.4-0.4,1-0.4,1.4,0c0.4,0.4,0.4,1,0,1.4
		l-7.3,7.1C82.3,49.6,82,49.7,81.8,49.7z"/>
	<path class="st1" d="M121.5,56.9c2,2.6,1.4,6.4-1.2,8.4l-63.8,47.9c-2.6,2-6.4,1.4-8.4-1.2L27.5,84.4c-2-2.6-1.4-6.4,1.2-8.4
		l63.8-47.9c2.6-2,6.4-1.4,8.4,1.2L121.5,56.9z"/>
	<path class="st2" d="M52.9,116c-2.2,0-4.3-1-5.6-2.8L26.4,85.5c-2.3-3.1-1.7-7.5,1.4-9.9l64.1-48.2c1.2-0.9,2.7-1.4,4.2-1.4
		c2.2,0,4.3,1,5.6,2.8l20.8,27.7c1.1,1.5,1.6,3.4,1.3,5.2c-0.3,1.9-1.2,3.5-2.7,4.6l-64.1,48.2C55.8,115.5,54.4,116,52.9,116z
		 M96.2,28c-1.1,0-2.1,0.3-3,1L29,77.2c-2.2,1.7-2.7,4.8-1,7L48.8,112c0.9,1.3,2.4,2,4,2c1.1,0,2.1-0.3,3-1L120,64.8
		c1.1-0.8,1.8-2,2-3.3c0.2-1.3-0.1-2.7-1-3.7L100.2,30C99.2,28.8,97.7,28,96.2,28z"/>
	
		<ellipse transform="matrix(0.7996 -0.6006 0.6006 0.7996 -27.1502 59.3383)" class="st3" cx="75.3" cy="70.3" rx="14.4" ry="14.4"/>
	<path class="st2" d="M75.5,86c-4.9,0-9.4-2.3-12.4-6.2C58,73,59.4,63.2,66.2,58.1c2.7-2,5.9-3.1,9.3-3.1c4.9,0,9.4,2.3,12.4,6.2
		c2.5,3.3,3.5,7.4,3,11.5c-0.6,4.1-2.7,7.7-6,10.2C82.1,84.9,78.9,86,75.5,86z M75.5,57c-2.9,0-5.7,0.9-8.1,2.7
		c-5.9,4.5-7.2,12.9-2.7,18.9C67.3,82,71.2,84,75.5,84c2.9,0,5.7-0.9,8.1-2.7c2.9-2.2,4.7-5.3,5.3-8.9c0.5-3.6-0.4-7.1-2.6-10
		C83.7,59,79.8,57,75.5,57z"/>
	<path class="st2" d="M31.4,90.6c-0.3,0-0.7-0.1-0.9-0.4c-0.3-0.5-0.2-1.1,0.3-1.4l0.2-0.1c0,0,0.1-0.1,0.1-0.1
		c2.5-1.8,4.2-4.4,4.6-7.3c0.4-2.9-0.4-5.8-2.3-8.2c0,0-0.1-0.1-0.1-0.1c-0.1-0.1-0.1-0.1-0.1-0.2c-0.4-0.4-0.3-1.1,0.2-1.4
		c0.5-0.3,1.1-0.3,1.5,0.2l0.1,0.1c0.1,0.1,0.1,0.1,0.2,0.2c2.2,2.8,3.2,6.2,2.7,9.7c-0.5,3.5-2.5,6.5-5.5,8.6
		c-0.1,0.1-0.2,0.1-0.3,0.2L32,90.4C31.8,90.5,31.6,90.6,31.4,90.6z"/>
	<path class="st2" d="M97.2,38c-4,0-7.9-1.8-10.5-5.1c-0.1-0.1-0.1-0.1-0.2-0.2l-0.1-0.1c-0.3-0.4-0.2-1.1,0.2-1.4
		c0.5-0.3,1.1-0.2,1.4,0.2l0.2,0.3c3.7,4.8,10.6,5.8,15.5,2.2c0,0,0.1-0.1,0.1-0.1l0.2-0.1c0.4-0.3,1.1-0.3,1.4,0.2
		c0.3,0.4,0.3,1-0.2,1.4l-0.1,0.1c-0.1,0.1-0.1,0.1-0.2,0.2C102.7,37.2,99.9,38,97.2,38z"/>
	<path class="st2" d="M61.7,110.3c-0.3,0-0.6-0.1-0.8-0.4l-0.2-0.3c-3.7-4.9-10.6-5.9-15.5-2.2l-0.3,0.2c-0.4,0.3-1.1,0.3-1.4-0.2
		c-0.3-0.4-0.3-1.1,0.2-1.4l0.1-0.1c0.1-0.1,0.1-0.1,0.2-0.2c5.8-4.3,14-3.2,18.3,2.6c0.1,0.1,0.1,0.1,0.2,0.2l0.1,0.1
		c0.3,0.4,0.2,1.1-0.2,1.4C62.1,110.2,61.9,110.3,61.7,110.3z"/>
	<path class="st2" d="M114.9,70.1c-0.3,0-0.6-0.1-0.8-0.4l-0.1-0.1c-0.1-0.1-0.1-0.1-0.2-0.2c-2.2-2.8-3.2-6.2-2.7-9.7
		c0.5-3.5,2.5-6.5,5.5-8.6c0.1-0.1,0.2-0.1,0.3-0.2l0.1-0.1c0.5-0.3,1.2-0.2,1.5,0.2c0.3,0.5,0.2,1.1-0.3,1.4l-0.2,0.1
		c0,0-0.1,0.1-0.1,0.1c-2.5,1.8-4.2,4.4-4.6,7.3c-0.4,2.9,0.4,5.8,2.3,8.2l0.1,0.1c0.1,0.1,0.1,0.1,0.2,0.2c0.4,0.4,0.3,1.1-0.2,1.4
		C115.4,70.1,115.2,70.1,114.9,70.1z"/>
	<line class="st3" x1="49.9" y1="89.8" x2="58.1" y2="83.7"/>
	<path class="st2" d="M50,91c-0.3,0-0.6-0.1-0.8-0.4c-0.3-0.4-0.2-1.1,0.2-1.4l8-6c0.4-0.3,1.1-0.2,1.4,0.2c0.3,0.4,0.2,1.1-0.2,1.4
		l-8,6C50.4,90.9,50.2,91,50,91z"/>
	<line class="st3" x1="92.5" y1="57.8" x2="100.7" y2="51.7"/>
	<path class="st2" d="M92.1,59c-0.3,0-0.7-0.2-0.9-0.4c-0.4-0.5-0.3-1.2,0.2-1.6l8.8-6.8c0.5-0.4,1.2-0.3,1.5,0.2
		c0.4,0.5,0.3,1.2-0.2,1.6l-8.8,6.8C92.5,58.9,92.3,59,92.1,59z"/>
	<path class="st2" d="M77.9,74.7c-1.2,0.9-3.2,1.8-4,0.9c-0.3-0.4-0.4-1.1,0.3-1.6c0.6-0.5,1.4-0.4,2.3-1l-1.6-2
		c-1.7,0.6-3.6,1.3-5.1-0.5c-1.3-1.6-0.9-3.4,0.8-4.8L70,64.9c-0.2-0.2-0.1-0.5,0.1-0.6c0.2-0.2,0.5-0.1,0.7,0.1l0.6,0.7
		c1-0.7,2.7-1.6,3.5-0.7c0.4,0.5,0.3,1.2-0.3,1.6c-0.5,0.4-0.9,0.3-1.8,0.8l1.5,1.9c1.8-0.6,3.6-1.4,5,0.4c1.3,1.6,0.9,3.6-0.6,5
		l0.6,0.7c0.2,0.2,0.1,0.5-0.1,0.6c-0.2,0.2-0.5,0.1-0.7-0.1L77.9,74.7z M73.3,69L72,67.4c-0.4,0.4-0.7,0.9-0.3,1.4
		c0.4,0.5,0.9,0.4,1.2,0.3L73.3,69z M76.1,70.5l-0.4,0.1l1.4,1.8c0.4-0.5,0.5-1.1,0.1-1.6C76.9,70.3,76.4,70.4,76.1,70.5z"/>
	<path class="st2" d="M115.6,14.5c-0.3,0-0.5-0.1-0.7-0.3c-0.4-0.4-0.4-1,0-1.4l6.4-6.4c0.4-0.4,1-0.4,1.4,0c0.4,0.4,0.4,1,0,1.4
		l-6.4,6.4C116.1,14.4,115.8,14.5,115.6,14.5z"/>
	<path class="st2" d="M110.3,11.5c-0.1,0-0.1,0-0.2,0c-0.5-0.1-0.9-0.6-0.8-1.2l1.3-6.4c0.1-0.5,0.6-0.9,1.2-0.8
		c0.5,0.1,0.9,0.6,0.8,1.2l-1.3,6.4C111.2,11.2,110.8,11.5,110.3,11.5z"/>
	<path class="st2" d="M118.6,19.8c-0.5,0-0.9-0.3-1-0.8c-0.1-0.5,0.2-1.1,0.8-1.2l6.4-1.3c0.5-0.1,1.1,0.2,1.2,0.8
		c0.1,0.5-0.2,1.1-0.8,1.2l-6.4,1.3C118.7,19.8,118.7,19.8,118.6,19.8z"/>
	<path class="st4" d="M77.3,46.7c-0.3,0-0.6-0.1-0.8-0.4c-0.3-0.4-0.2-1.1,0.2-1.4l7.7-5.8c0.4-0.3,1.1-0.2,1.4,0.2
		c0.3,0.4,0.2,1.1-0.2,1.4l-7.7,5.8C77.7,46.7,77.5,46.7,77.3,46.7z"/>
	<path class="st4" d="M43.1,72.4c-0.3,0-0.6-0.1-0.8-0.4c-0.3-0.4-0.2-1.1,0.2-1.4l27.8-20.9c0.4-0.3,1.1-0.2,1.4,0.2
		c0.3,0.4,0.2,1.1-0.2,1.4L43.7,72.2C43.5,72.3,43.3,72.4,43.1,72.4z"/>
	<path class="st4" d="M64.1,102.4c-0.3,0-0.6-0.1-0.8-0.4c-0.3-0.4-0.2-1.1,0.2-1.4l41.9-31.4c0.4-0.3,1.1-0.2,1.4,0.2
		c0.3,0.4,0.2,1.1-0.2,1.4l-41.9,31.4C64.5,102.3,64.3,102.4,64.1,102.4z"/>
	<path class="st4" d="M111.6,52.1c-0.3,0-0.6-0.1-0.8-0.4l-7.9-10.5c-0.3-0.4-0.2-1.1,0.2-1.4c0.4-0.3,1.1-0.2,1.4,0.2l7.9,10.5
		c0.3,0.4,0.2,1.1-0.2,1.4C112,52.1,111.8,52.1,111.6,52.1z"/>
	<path class="st4" d="M61.5,43.3c-0.3,0-0.5-0.1-0.7-0.3c-0.4-0.4-0.4-1,0-1.4l11.9-11.6c0.4-0.4,1-0.4,1.4,0c0.4,0.4,0.4,1,0,1.4
		L62.2,43C62,43.2,61.8,43.3,61.5,43.3z"/>
	<path class="st4" d="M47.8,40.6c-0.2,0-0.4-0.1-0.6-0.2c-0.4-0.3-0.5-1-0.2-1.4l10.3-13.9c0.3-0.4,1-0.5,1.4-0.2
		c0.4,0.3,0.5,1,0.2,1.4L48.6,40.2C48.4,40.5,48.1,40.6,47.8,40.6z"/>
	<path class="st5" d="M88.1,109.7c0-0.4-0.4-0.8-1-0.9l-1.9-0.3c-0.5-0.1-1.1-0.6-1.1-1.1l-0.3-1.9c-0.1-0.5-0.5-1-0.9-1
		c-0.4,0-0.8,0.4-0.9,1l-0.3,1.9c-0.1,0.5-0.6,1.1-1.1,1.1l-1.9,0.3c-0.5,0.1-1,0.5-1,0.9c0,0.4,0.4,0.8,1,0.9l1.9,0.3
		c0.5,0.1,1.1,0.6,1.1,1.1l0.3,1.9c0.1,0.5,0.5,1,0.9,1c0.4,0,0.8-0.4,0.9-1l0.3-2.1c0.1-0.5,0.6-1,1.1-1.1l1.8-0.1
		C87.7,110.5,88.1,110.1,88.1,109.7z"/>
	<path class="st5" d="M28.5,35c0-0.4-0.4-0.8-1-0.9l-1.9-0.3c-0.5-0.1-1.1-0.6-1.1-1.1l-0.3-1.9c-0.1-0.5-0.5-1-0.9-1
		c-0.4,0-0.8,0.4-0.9,1l-0.3,1.9c-0.1,0.5-0.6,1.1-1.1,1.1l-1.9,0.3c-0.5,0.1-1,0.5-1,0.9c0,0.4,0.4,0.8,1,0.9l1.9,0.3
		c0.5,0.1,1.1,0.6,1.1,1.1l0.3,1.9c0.1,0.5,0.5,1,0.9,1c0.4,0,0.8-0.4,0.9-1l0.3-2.1c0.1-0.5,0.6-1,1.1-1.1l1.8-0.1
		C28,35.7,28.5,35.4,28.5,35z"/>
	<path class="st5" d="M11,60c-2.2,0-4-1.8-4-4c0-2.2,1.8-4,4-4c2.2,0,4,1.8,4,4C15,58.2,13.2,60,11,60z M11,54c-1.1,0-2,0.9-2,2
		c0,1.1,0.9,2,2,2c1.1,0,2-0.9,2-2C13,54.9,12.1,54,11,54z"/>
	<path class="st5" d="M40,22c-2.2,0-4-1.8-4-4c0-2.2,1.8-4,4-4c2.2,0,4,1.8,4,4C44,20.2,42.2,22,40,22z M40,16c-1.1,0-2,0.9-2,2
		c0,1.1,0.9,2,2,2c1.1,0,2-0.9,2-2C42,16.9,41.1,16,40,16z"/>
	<path class="st5" d="M109,92c-2.2,0-4-1.8-4-4c0-2.2,1.8-4,4-4c2.2,0,4,1.8,4,4C113,90.2,111.2,92,109,92z M109,86
		c-1.1,0-2,0.9-2,2c0,1.1,0.9,2,2,2c1.1,0,2-0.9,2-2C111,86.9,110.1,86,109,86z"/>
</g>
</svg>
