<?xml version="1.0" encoding="utf-8"?>
<!-- Generator: Adobe Illustrator 21.0.2, SVG Export Plug-In . SVG Version: 6.00 Build 0)  -->
<svg version="1.1" id="shopping_x5F_bag" xmlns="http://www.w3.org/2000/svg" xmlns:xlink="http://www.w3.org/1999/xlink" x="0px"
	 y="0px" viewBox="0 0 128 128" style="enable-background:new 0 0 128 128;" xml:space="preserve">
<style type="text/css">
	.st0{fill:#616879;}
	.st1{fill:#FFFFFF;}
	.st2{fill:#616879;}
	.st3{fill:#FFFFFF;}
	.st4{fill:#FFFFFF;}
	.st5{fill:#FFFFFF;}
	.st6{fill:#FFFFFF;}
	.st7{opacity:0.5;fill:#FFFFFF;}
	.st8{fill:#616879;}
</style>
<g>
	<circle class="st0" cx="64" cy="64" r="64"/>
	<path class="st1" d="M25.5,37.9h79v63.6H25.6L25.5,37.9z"/>
	<path class="st2" d="M25.5,47h79v46.6H25.6L25.5,47z"/>
	<path class="st3" d="M108,53c0,0-86.5,0.1-86.6,0.2v48.3c0,0,0,5.7,0,10.3C32.7,121.9,47.6,128,64,128c17,0,32.5-6.6,43.9-17.5
		c0-4.2,0-9.1,0-9.1C107.9,81.4,108,53,108,53z"/>
	<polygon class="st3" points="33.2,43 25.5,37.9 25.5,49.1 	"/>
	<polygon class="st3" points="96.9,43 104.5,49.8 104.5,37.9 	"/>
	<path class="st1" d="M89.8,66.3c-2.2,0-4,1.8-4,4c0,2.2,1.8,4,4,4c2.2,0,4-1.8,4-4C93.8,68.1,92,66.3,89.8,66.3z"/>
	<path class="st1" d="M40.1,66.3c-2.2,0-4,1.8-4,4c0,2.2,1.8,4,4,4c2.2,0,4-1.8,4-4C44.2,68.1,42.3,66.3,40.1,66.3z"/>
	<path class="st4" d="M33.2,53.2V43L21.7,53.2H33.2z M96.9,43L97,53h11L96.9,43z"/>
	<path class="st5" d="M92.5,74.3c0-1.1-0.9-2.1-2-2.1c-1.1,0-2.2,1-2.2,2.1c0,13.3-10,24-23.3,24c-13.3,0-23.5-10.8-23.5-24
		c0-1.1-0.9-2.1-2-2.1c-1.1,0-2.5,0.6-2.5,1.7c0,15.6,12.4,29,28,29C80.6,103,92.5,89.9,92.5,74.3L92.5,74.3z"/>
	<path class="st6" d="M91.8,71.7c0-1.1-0.9-2-2-2s-2.1,1-2.1,2c0,12.9-9.7,23.4-22.7,23.4c-12.9,0-22.9-10.5-22.9-23.4
		c0-1.1-0.9-2-2-2c-1.1,0-2.1,1-2.1,2c0,15.2,11.8,27.5,27,27.5S91.8,86.9,91.8,71.7L91.8,71.7z"/>
	<path class="st7" d="M51.4,18.2c0-0.4-0.4-0.8-1-0.9L48.6,17c-0.5-0.1-1.1-0.6-1.1-1.1L47.2,14c-0.1-0.5-0.5-1-0.9-1
		c-0.4,0-0.8,0.4-0.9,1l-0.3,1.9c-0.1,0.5-0.6,1.1-1.1,1.1l-1.9,0.3c-0.5,0.1-1,0.5-1,0.9s0.4,0.8,1,0.9l1.9,0.3
		c0.5,0.1,1.1,0.6,1.1,1.1l0.3,1.9c0.1,0.5,0.5,1,0.9,1c0.4,0,0.8-0.4,0.9-1l0.3-2.1c0.1-0.5,0.6-1,1.1-1.1l1.8-0.1
		C51,18.9,51.4,18.5,51.4,18.2z"/>
	<path class="st7" d="M90.2,16.9c0-0.4-0.4-0.8-1-0.9l-1.9-0.3c-0.5-0.1-1.1-0.6-1.1-1.1L86,12.7c-0.1-0.5-0.5-1-0.9-1
		c-0.4,0-0.8,0.4-0.9,1L84,14.6c-0.1,0.5-0.6,1.1-1.1,1.1L81,16c-0.5,0.1-1,0.5-1,0.9c0,0.4,0.4,0.8,1,0.9l1.9,0.3
		c0.5,0.1,1.1,0.6,1.1,1.1l0.3,1.9c0.1,0.5,0.5,1,0.9,1c0.4,0,0.8-0.4,0.9-1l0.3-2.1c0.1-0.5,0.6-1,1.1-1.1l1.8-0.1
		C89.8,17.6,90.2,17.3,90.2,16.9z"/>
	<path class="st7" d="M69,31c-2.2,0-4-1.8-4-4c0-2.2,1.8-4,4-4c2.2,0,4,1.8,4,4C73,29.2,71.2,31,69,31z M69,24.9
		c-1.2,0-2.1,1-2.1,2.1c0,1.2,1,2.1,2.1,2.1c1.2,0,2.1-1,2.1-2.1C71.1,25.8,70.2,24.9,69,24.9z"/>
	<path class="st7" d="M10,70c-2.2,0-4-1.8-4-4c0-2.2,1.8-4,4-4c2.2,0,4,1.8,4,4C14,68.2,12.2,70,10,70z M10,63.9
		c-1.2,0-2.1,1-2.1,2.1c0,1.2,1,2.1,2.1,2.1c1.2,0,2.1-1,2.1-2.1C12.1,64.8,11.2,63.9,10,63.9z"/>
	<path class="st7" d="M117,79c-2.2,0-4-1.8-4-4c0-2.2,1.8-4,4-4c2.2,0,4,1.8,4,4C121,77.2,119.2,79,117,79z M117,72.9
		c-1.2,0-2.1,1-2.1,2.1c0,1.2,1,2.1,2.1,2.1c1.2,0,2.1-1,2.1-2.1C119.1,73.8,118.2,72.9,117,72.9z"/>
	<path class="st7" d="M102,111c-0.6,0-1-0.4-1-1V76c0-0.6,0.4-1,1-1c0.6,0,1,0.4,1,1v34C103,110.6,102.6,111,102,111z"/>
	<path class="st7" d="M102,70c-0.6,0-1-0.4-1-1v-9c0-0.6,0.4-1,1-1c0.6,0,1,0.4,1,1v9C103,69.6,102.6,70,102,70z"/>
	<path class="st8" d="M109,53.4c0-0.6-0.3-1-0.6-1.3s-1.6-1.5-2.4-2.1V37c0-0.6-0.4-1-1-1H25c-0.6,0-1,0.4-1,1v12.7
		c-1.3,1.2-2.3,2-2.4,2.2c-0.5,0.5-0.6,1.3-0.6,1.9c0,0.4,0,53.3,0,57.2c0.7,0.6,2,1.8,2,1.8V54h84l0,57c0,0,1.3-1.2,2-1.9
		C109,105.8,109,54,109,53.4z M26,39.7l5.5,3.3c-1.1,1-3.6,2.7-5.5,4.4V39.7z M32,52c-3.7,0-6,0-7.5,0l7.5-6.8V52z M96,43.2
		c0,0.4,0,8.8,0,8.8c0,0,0,0,0,0c-8.9,0-21.4,0-33.2,0c-13.6,0-22.7,0-28.8,0c0,0,0-8.4,0-9c0-0.7-0.2-0.8-0.5-1s-6-4-6-4h74.9l-6,4
		C96,42.3,96,42.8,96,43.2z M104,39.7v7.6c-1.9-1.7-4.3-3.4-5.4-4.3L104,39.7z M98,52C98,52,98,52,98,52l0-6.8l7.5,6.8
		C103.8,52,101.2,52,98,52z"/>
	<path class="st8" d="M90,65c-2.8,0-5,2.2-5,5c0,1.5,0.6,2.9,1.7,3.8C85.6,85.3,76.4,94,65,94c-11.5,0-20.6-8.7-21.8-20.1
		C44.3,73,45,71.6,45,70c0-2.8-2.2-5-5-5c-2.8,0-5,2.2-5,5c0,1.6,0.8,3.1,2.1,4c1.3,14.8,13,26,27.9,26c14.8,0,26.6-11.2,27.9-26
		c1.3-0.9,2.1-2.4,2.1-4C95,67.2,92.8,65,90,65z M40,67c1.7,0,3,1.3,3.1,3c0,0.2,0,0.5-0.1,0.7c-0.3-1.3-1.5-2.3-2.9-2.3
		c-1.4,0-2.6,1-3,2.2c0-0.2-0.1-0.4-0.1-0.6C37,68.3,38.4,67,40,67z M65.1,98c-14.7,0-26.1-11.7-26.1-26.6c0-0.5,0.6-1,1.1-1
		c0.5,0,1,0.5,1,1C41,85.1,51.5,96,65,96c13.3,0,23.9-10.9,23.9-24.6c0-0.5,0.6-1,1.1-1c0.5,0,1,0.5,1,1C91,86.3,79.6,98,65.1,98z
		 M92.9,70.7c-0.3-1.3-1.5-2.3-2.9-2.3c-1.4,0-2.6,1-3,2.2c0-0.2-0.1-0.4-0.1-0.6c0-1.7,1.3-3,3-3c1.7,0,3,1.3,3.1,3
		C93,70.2,93,70.5,92.9,70.7z"/>
</g>
</svg>
