<svg id="Layer_1" data-name="Layer 1" xmlns="http://www.w3.org/2000/svg" viewBox="0 0 960 463"><defs><style>.cls-1{fill:#f2f2f2;}</style></defs><title>Toomi finals</title><path class="cls-1" d="M220.36,265.76V233.23a5.32,5.32,0,0,1,1.56-3.79,61.14,61.14,0,0,1,25.77-15.22,119.36,119.36,0,0,0-49.5,5.91,2.82,2.82,0,0,1-3.28-1.1l-16.26-24.78a2.83,2.83,0,0,1,1.29-4.18,153.18,153.18,0,0,1,40.42-10V153.58a2.49,2.49,0,0,1,2.49-2.49H251.5a2.5,2.5,0,0,1,2.49,2.49v26.61a153.53,153.53,0,0,1,40.43,10.21,2.84,2.84,0,0,1,1.28,4.18l-16.23,24.73a2.82,2.82,0,0,1-3.3,1.09,118.78,118.78,0,0,0-22.62-5.48l1,50.84a21,21,0,0,0,3.12,12.09c5.55,8.63,17.83,9.61,25.08,2.36l52.47-52.47A98,98,0,0,0,233.35,129.8c-50.8,1.93-92.19,43.33-94.12,94.13a98,98,0,0,0,97.94,101.83l7.09-7.09a4.77,4.77,0,0,0-.55-7.24A56.36,56.36,0,0,1,220.36,265.76Z"/><path class="cls-1" d="M402.2,260q7.28,0,17.49-3.19v20.67q-10.4,4.65-25.51,4.65-16.67,0-24.27-8.43t-7.61-25.27v-49.1H349V187.62l15.3-9.29,8-21.5h17.76v21.68h28.51v20.86H390.08v49.1q0,5.92,3.33,8.74A13.11,13.11,0,0,0,402.2,260Z"/><path class="cls-1" d="M521.62,229.25q0,24.87-13.11,38.89t-36.53,14q-14.67,0-25.87-6.42A42.65,42.65,0,0,1,428.9,257.3q-6-12-6-28.05,0-25,13-38.81t36.62-13.84q14.66,0,25.87,6.37a42.64,42.64,0,0,1,17.21,18.31Q521.63,213.22,521.62,229.25Zm-70.41,0q0,15.12,5,22.86t16.16,7.74q11.12,0,16-7.69t4.87-22.91q0-15.12-4.91-22.68T472.16,199q-11.12,0-16,7.51T451.21,229.25Z"/><path class="cls-1" d="M625.93,229.25q0,24.87-13.12,38.89t-36.52,14q-14.67,0-25.87-6.42A42.73,42.73,0,0,1,533.2,257.3q-6-12-6-28.05,0-25,13-38.81t36.61-13.84q14.67,0,25.87,6.37a42.66,42.66,0,0,1,17.22,18.31Q625.93,213.22,625.93,229.25Zm-70.41,0q0,15.12,5,22.86t16.17,7.74q11.11,0,16-7.69t4.87-22.91q0-15.12-4.92-22.68T576.47,199q-11.12,0-16,7.51T555.52,229.25Z"/><path class="cls-1" d="M728.87,280.35H701.09V220.87q0-11-3.69-16.54t-11.61-5.51q-10.66,0-15.49,7.84t-4.83,25.78v47.91H637.69V178.51h21.23l3.73,13h1.55a28.19,28.19,0,0,1,11.84-11,38.45,38.45,0,0,1,17.76-4q22.86,0,31,14.94h2.46a27.57,27.57,0,0,1,12.07-11,40.39,40.39,0,0,1,18-3.91q17.31,0,26.19,8.88t8.88,28.46v66.41H764.49V220.87q0-11-3.69-16.54t-11.62-5.51q-10.2,0-15.25,7.29t-5.06,23.14Z"/><path class="cls-1" d="M808.49,152.19q0-13.58,15.12-13.58t15.12,13.58q0,6.47-3.78,10.06t-11.34,3.6Q808.49,165.85,808.49,152.19Zm29,128.16H809.68V178.51h27.78Z"/></svg>