<?xml version="1.0" encoding="utf-8"?>
<!-- Generator: Adobe Illustrator 21.0.2, SVG Export Plug-In . SVG Version: 6.00 Build 0)  -->
<svg version="1.1" id="wallet" xmlns="http://www.w3.org/2000/svg" xmlns:xlink="http://www.w3.org/1999/xlink" x="0px" y="0px"
	 viewBox="0 0 128 128" style="enable-background:new 0 0 128 128;" xml:space="preserve">
<style type="text/css">
	.st0{fill:#616879;}
	.st1{fill:#616879;}
	.st2{fill:#FFFFFF;}
	.st3{fill:#FFFFFF;}
	.st4{fill:#FFFFFF;}
	.st5{opacity:0.5;fill:#616879;}
	.st6{fill:#FFFFFF;}
</style>
<g>
	<circle class="st0" cx="64" cy="64" r="64"/>
	<path class="st1" d="M102,43.2c0-3.7-2-5.4-4.6-5.4s-63.8,0-63.8,0c-1.5,0-2.7,1.1-2.7,2.4c0,1.3,1.2,2.4,2.7,2.4
		c0,0,57.9,0,64.1,0c6.1,0,9,1.9,9,7.3s0,36.5,0,36.5c0,4.8-3.9,8.7-8.7,8.7h-66c-4.8,0-8.7-3.9-8.7-8.7V42.2c0-4.8,3.9-8.7,8.7-8.7
		h58.3c4.8,0,6.3,0.6,6.3,4.3"/>
	<path class="st2" d="M98.1,85h-66c-4.8,0-8.7-3.9-8.7-8.7v10.2c0,4.8,3.9,8.7,8.7,8.7h66c4.8,0,8.7-3.9,8.7-8.7c0,0,0-4.4,0-10.2
		C106.8,81.1,102.8,85,98.1,85z"/>
	<path class="st2" d="M106.8,75c0-3.5,0-7.3,0-11H95.3c-3.6,0-5.6,2.5-5.6,5.5c0,3,2.1,5.5,5.6,5.5h10.1C105.9,75,106.3,75,106.8,75
		z"/>
	<path class="st3" d="M102,43.2c0-3.7-2-5.4-4.6-5.4s-63.8,0-63.8,0c-1.5,0-2.7,1.1-2.7,2.4c0,1.3,1.2,2.4,2.7,2.4
		c0,0,57.9,0,64.1,0"/>
	<path class="st4" d="M24.5,44.9c-0.4,0-0.8-0.3-0.9-0.7c-0.3-0.9-0.5-1.9-0.5-2.8c0-0.6,0.4-1,1-1c0.6,0,1,0.4,1,1
		c0,0.7,0.1,1.5,0.3,2.1c0.2,0.5-0.1,1.1-0.6,1.3C24.7,44.9,24.6,44.9,24.5,44.9z"/>
	<path class="st4" d="M91.6,91h-4.1c-0.6,0-1-0.4-1-1s0.4-1,1-1h4.1c0.3,0,0.6,0,0.9,0c0,0,0,0,0,0c0.5,0,1,0.4,1,1c0,0.6-0.4,1-1,1
		C92.3,91,92,91,91.6,91z M82.6,91h-5c-0.6,0-1-0.4-1-1s0.4-1,1-1h5c0.6,0,1,0.4,1,1S83.1,91,82.6,91z M72.7,91h-5c-0.6,0-1-0.4-1-1
		s0.4-1,1-1h5c0.6,0,1,0.4,1,1S73.2,91,72.7,91z M62.7,91h-5c-0.6,0-1-0.4-1-1s0.4-1,1-1h5c0.6,0,1,0.4,1,1S63.3,91,62.7,91z
		 M52.8,91h-5c-0.6,0-1-0.4-1-1s0.4-1,1-1h5c0.6,0,1,0.4,1,1S53.4,91,52.8,91z M42.9,91h-5c-0.6,0-1-0.4-1-1s0.4-1,1-1h5
		c0.6,0,1,0.4,1,1S43.4,91,42.9,91z M33,91C32.9,91,32.9,91,33,91c-1.7-0.1-3.6-0.5-5.2-1.2c-0.5-0.2-0.7-0.8-0.5-1.3
		c0.2-0.5,0.8-0.7,1.3-0.5c1.4,0.6,3,1,4.4,1c0.6,0,1,0.5,1,1C33.9,90.6,33.5,91,33,91z M97.4,90.2c-0.4,0-0.8-0.3-0.9-0.7
		c-0.2-0.5,0.1-1.1,0.6-1.3c1.6-0.5,2.6-1.4,2.9-2.4c0.1-0.5,0.7-0.9,1.2-0.8c0.5,0.1,0.9,0.7,0.8,1.2c-0.2,1-1.1,2.8-4.2,3.9
		C97.6,90.2,97.5,90.2,97.4,90.2z M101,82.1c-0.6,0-1-0.4-1-1v-5c0-0.6,0.4-1,1-1c0.6,0,1,0.4,1,1v5C102,81.7,101.6,82.1,101,82.1z
		 M101,72.2c-0.6,0-1-0.4-1-1v-5c0-0.6,0.4-1,1-1c0.6,0,1,0.4,1,1v5C102,71.7,101.6,72.2,101,72.2z M101,62.3c-0.6,0-1-0.4-1-1v-5
		c0-0.6,0.4-1,1-1c0.6,0,1,0.4,1,1v5C102,61.8,101.6,62.3,101,62.3z M100.6,52.4c-0.4,0-0.8-0.3-0.9-0.7c-0.3-0.8-0.9-1.7-2.9-1.7
		c-0.6,0-1-0.4-1-1s0.4-1,1-1h0.1c3,0,4.3,1.7,4.8,3c0.2,0.5-0.1,1.1-0.6,1.3C100.8,52.4,100.7,52.4,100.6,52.4z M91.7,50h-5
		c-0.6,0-1-0.4-1-1s0.4-1,1-1h5c0.6,0,1,0.4,1,1S92.3,50,91.7,50z M81.8,50h-5c-0.6,0-1-0.4-1-1s0.4-1,1-1h5c0.6,0,1,0.4,1,1
		S82.3,50,81.8,50z M71.9,50h-5c-0.6,0-1-0.4-1-1s0.4-1,1-1h5c0.6,0,1,0.4,1,1S72.4,50,71.9,50z M61.9,50h-5c-0.6,0-1-0.4-1-1
		s0.4-1,1-1h5c0.6,0,1,0.4,1,1S62.5,50,61.9,50z M52,50h-5c-0.6,0-1-0.4-1-1s0.4-1,1-1h5c0.6,0,1,0.4,1,1S52.6,50,52,50z M42.1,50
		h-5c-0.6,0-1-0.4-1-1s0.4-1,1-1h5c0.6,0,1,0.4,1,1S42.6,50,42.1,50z M32.1,50C32.1,50,32.1,50,32.1,50c-2.1,0-3.8-0.5-5.3-1.4
		c-0.5-0.3-0.6-0.9-0.3-1.4c0.3-0.5,0.9-0.6,1.4-0.3c1.1,0.7,2.5,1.1,4.2,1.1c0.6,0,1,0.5,1,1C33.1,49.6,32.7,50,32.1,50z"/>
	<path class="st4" d="M24.4,87.1c-0.3,0-0.6-0.1-0.8-0.4c-0.6-0.8-1-1.7-1.1-2.7c-0.1-0.5,0.3-1.1,0.8-1.2c0.5-0.1,1.1,0.3,1.2,0.8
		c0.1,0.7,0.4,1.3,0.8,1.9c0.3,0.4,0.2,1.1-0.2,1.4C24.8,87,24.6,87.1,24.4,87.1z"/>
	<path class="st1" d="M107.2,57c3.2,0,4.5,1.5,4.8,4.6c0,0.4,0,4.9,0,5.3c0,3-2.9,4.4-6.5,4.4H95.3c-3.6,0-5.6-2.5-5.6-5.5
		c0-3,2.1-5.5,5.6-5.5h12.5"/>
	<path class="st4" d="M105.4,73H95.3c-4.2,0-6.6-3.7-6.6-7.2c0-3.4,2.3-6.8,6.6-6.8h12.5c0.6,0,1,0.4,1,1s-0.4,1-1,1H95.3
		c-3.2,0-4.6,2.5-4.6,4.8c0,2.5,1.6,5.2,4.6,5.2h10.1c2.8,0,5.6-1.4,5.6-4l0-0.6c0-1.1,0-4.4,0-4.7c-0.2-2.7-1.3-3.7-3.8-3.7
		c-0.6,0-1-0.4-1-1c0-0.6,0.4-1,1-1c3.6,0,5.5,1.8,5.8,5.5c0,0.3,0,1.6,0,4.9l0,0.6C113,70.5,109.8,73,105.4,73z"/>
	<circle class="st4" cx="95.5" cy="65.5" r="2.5"/>
	<path class="st4" d="M98.1,97h-66C26.8,97,22,92,22,86.6V42.2c0-5.1,4.5-9.2,10.1-9.2h58.3c4.6,0,7.6,0,7.6,4.9c0,0.6-0.4,1-1,1
		c-0.6,0-1-0.4-1-1c0-2.6-0.5-2.9-5.6-2.9H32.1c-4.5,0-8.1,3.2-8.1,7.2v44.4c0,4.3,3.9,8.4,8.1,8.4h66c4.1,0,7.9-4.1,7.9-8.4V72
		c0-0.6,0.4-1,1-1c0.6,0,1,0.4,1,1v14.6C108,92,103.3,97,98.1,97z"/>
	<path class="st4" d="M107,61.1c-0.6,0-1-0.4-1-1v-10c0-3.6-1.5-5.4-5.3-5.9l-3-0.2h-64c-2,0-3.7-1.7-3.7-3.7c0-1.9,1.6-3.3,3.7-3.3
		h63.8c3.3,0,5.3,2.1,5.5,5.6c2.8,0.9,5,2.9,5,7.5v10C108,60.7,107.6,61.1,107,61.1z M100.8,42.2L100.8,42.2
		c-0.2-2.1-1.3-3.2-3.4-3.2H33.7c-0.9,0-1.7,0.6-1.7,1.3c0,0.8,0.7,1.7,1.7,1.7h64.1c0,0,0,0,0,0C98.8,42,99.8,42,100.8,42.2z"/>
	<path class="st5" d="M107,64h-7c-0.6,0-1-0.4-1-1s0.5-1,1-1h7c0.6,0,1,0.4,1,1S107.5,64,107,64z"/>
	<path class="st5" d="M104,58.3c-0.6,0-1-0.4-1-1v-6c0-3.8-3.2-4.3-5.2-4.3H68c-0.6,0-1-0.4-1-1s0.4-1,1-1h29.8
		c3.5,0,7.2,1.7,7.2,6.3v6C105,57.9,104.6,58.3,104,58.3z"/>
	<path class="st5" d="M59,47H33.5c-7,0-7.5-5.4-7.5-7c0-0.6,0.4-1,1-1c0.6,0,1,0.4,1,1c0,2.3,1,5,5.5,5H59c0.6,0,1,0.4,1,1
		S59.6,47,59,47z"/>
	<path class="st6" d="M83,114c-2.2,0-4-1.8-4-4c0-2.2,1.8-4,4-4c2.2,0,4,1.8,4,4C87,112.2,85.2,114,83,114z M83,108
		c-1.1,0-2,0.9-2,2c0,1.1,0.9,2,2,2c1.1,0,2-0.9,2-2C85,108.9,84.1,108,83,108z"/>
	<path class="st6" d="M37,25c-2.2,0-4-1.8-4-4c0-2.2,1.8-4,4-4c2.2,0,4,1.8,4,4C41,23.2,39.2,25,37,25z M37,19c-1.1,0-2,0.9-2,2
		c0,1.1,0.9,2,2,2c1.1,0,2-0.9,2-2C39,19.9,38.1,19,37,19z"/>
	<path class="st6" d="M97,28c-2.2,0-4-1.8-4-4c0-2.2,1.8-4,4-4c2.2,0,4,1.8,4,4C101,26.2,99.2,28,97,28z M97,22c-1.1,0-2,0.9-2,2
		c0,1.1,0.9,2,2,2c1.1,0,2-0.9,2-2C99,22.9,98.1,22,97,22z"/>
	<path class="st6" d="M75.8,17.6c0-0.4-0.4-0.8-1-0.9l-1.9-0.3c-0.5-0.1-1.1-0.6-1.1-1.1l-0.3-1.9c-0.1-0.5-0.5-1-0.9-1
		c-0.4,0-0.8,0.4-0.9,1l-0.3,1.9c-0.1,0.5-0.6,1.1-1.1,1.1l-1.9,0.3c-0.5,0.1-1,0.5-1,0.9c0,0.4,0.4,0.8,1,0.9l1.9,0.3
		c0.5,0.1,1.1,0.6,1.1,1.1l0.3,1.9c0.1,0.5,0.5,1,0.9,1c0.4,0,0.8-0.4,0.8-1l0.3-2.1c0.1-0.5,0.6-1,1.1-1.1l1.8-0.1
		C75.3,18.4,75.8,18,75.8,17.6z"/>
	<path class="st6" d="M53.2,108.8c0-0.4-0.4-0.8-1-0.9l-1.9-0.3c-0.5-0.1-1.1-0.6-1.1-1.1l-0.3-1.9c-0.1-0.5-0.5-1-0.9-1
		c-0.4,0-0.8,0.4-0.9,1l-0.3,1.9c-0.1,0.5-0.6,1.1-1.1,1.1l-1.9,0.3c-0.5,0.1-1,0.5-1,0.9c0,0.4,0.4,0.8,1,0.9l1.9,0.3
		c0.5,0.1,1.1,0.6,1.1,1.1l0.3,1.9c0.1,0.5,0.5,1,0.9,1c0.4,0,0.8-0.4,0.8-1l0.3-2.1c0.1-0.5,0.6-1,1.1-1.1l1.8-0.1
		C52.7,109.5,53.2,109.2,53.2,108.8z"/>
	<path class="st6" d="M17.8,63.5c0-0.4-0.4-0.8-1-0.9l-1.9-0.3c-0.5-0.1-1.1-0.6-1.1-1.1l-0.3-1.9c-0.1-0.5-0.5-1-0.9-1
		c-0.4,0-0.8,0.4-0.9,1l-0.3,1.9c-0.1,0.5-0.6,1.1-1.1,1.1l-1.9,0.3c-0.5,0.1-1,0.5-1,0.9c0,0.4,0.4,0.8,1,0.9l1.9,0.3
		c0.5,0.1,1.1,0.6,1.1,1.1l0.3,1.9c0.1,0.5,0.5,1,0.9,1c0.4,0,0.8-0.4,0.8-1l0.3-2.1c0.1-0.5,0.6-1,1.1-1.1l1.8-0.1
		C17.3,64.3,17.8,63.9,17.8,63.5z"/>
	<path class="st5" d="M27,78.2c-0.6,0-1-0.4-1-1v-24c0-0.6,0.4-1,1-1c0.6,0,1,0.4,1,1v24C28,77.8,27.6,78.2,27,78.2z"/>
</g>
</svg>
